<?xml version="1.0" encoding="UTF-8" standalone="no"?>
<svg
   xmlns:dc="http://purl.org/dc/elements/1.1/"
   xmlns:cc="http://creativecommons.org/ns#"
   xmlns:rdf="http://www.w3.org/1999/02/22-rdf-syntax-ns#"
   xmlns:svg="http://www.w3.org/2000/svg"
   xmlns="http://www.w3.org/2000/svg"
   id="svg6"
   version="1.1"
   viewBox="-178.3 -167.1 1000 700">
  <metadata
     id="metadata12">
    <rdf:RDF>
      <cc:Work
         rdf:about="">
        <dc:format>image/svg+xml</dc:format>
        <dc:type
           rdf:resource="http://purl.org/dc/dcmitype/StillImage" />
        <dc:title></dc:title>
      </cc:Work>
    </rdf:RDF>
  </metadata>
  <defs
     id="defs10" />
  <path
     id="path2"
     fill="#494368"
     d="M79.9 323.1c4 0 7.3 1.4 10.1 4.2 2.8 2.8 4.2 6.2 4.2 10.1V387H43.5c-4 0-7.3-1.4-10.1-4.2-2.8-2.8-4.2-6.2-4.2-10.1v-23.6h53.1v-11.7c0-.7-.2-1.2-.7-1.7-.5-.5-1-.7-1.7-.7H29.2v-11.9h50.7zm2.4 52V361H41.1v11.7c0 .7.2 1.2.7 1.7.5.5 1 .7 1.7.7h38.8zm114.7-52h12.7l-24 63.9H176l-21.5-47.5-20.3 47.5-.2-.1.1.1h-9.6l-25.1-63.9H112l17.3 42.4 18.4-42.4h13.6l19.5 42.4 16.2-42.4zm67.2 0c4 0 7.3 1.4 10.1 4.2 2.8 2.8 4.2 6.2 4.2 10.1V361h-53.1v11.7c0 .7.2 1.2.7 1.7.5.5 1 .7 1.7.7h50.7V387h-50.7c-4 0-7.3-1.4-10.1-4.2-2.8-2.8-4.2-6.2-4.2-10.1v-35.3c0-4 1.4-7.3 4.2-10.1 2.8-2.8 6.2-4.2 10.1-4.2h36.4zm-38.8 26h41.2v-11.7c0-.7-.2-1.2-.7-1.7-.5-.5-1-.7-1.7-.7h-36.4c-.7 0-1.2.2-1.7.7-.5.5-.7 1-.7 1.7v11.7zm129-11.6v2.4h-11.9v-2.4c0-.7-.2-1.2-.7-1.7-.5-.5-1-.7-1.7-.7h-36.4c-.7 0-1.2.2-1.7.7-.5.5-.7 1-.7 1.7v9.3c0 .7.2 1.2.7 1.7.5.5 1 .7 1.7.7h36.4c4 0 7.3 1.4 10.1 4.2 2.8 2.8 4.2 6.2 4.2 10.1v9.3c0 4-1.4 7.3-4.2 10.1-2.8 2.8-6.2 4.2-10.1 4.2h-36.4c-4 0-7.3-1.4-10.1-4.2-2.8-2.8-4.2-6.2-4.2-10.1v-2.4h11.9v2.4c0 .7.2 1.2.7 1.7.5.5 1 .7 1.7.7h36.4c.7 0 1.2-.2 1.7-.7.5-.5.7-1 .7-1.7v-9.3c0-.7-.2-1.2-.7-1.7-.5-.5-1-.7-1.7-.7h-36.4c-4 0-7.3-1.4-10.1-4.2-2.8-2.8-4.2-6.2-4.2-10.1v-9.3c0-4 1.4-7.3 4.2-10.1 2.8-2.8 6.2-4.2 10.1-4.2h36.4c4 0 7.3 1.4 10.1 4.2 2.8 2.7 4.2 6.1 4.2 10.1zm25.2-14.4H416c4 0 7.3 1.4 10.1 4.2 2.8 2.8 4.2 6.2 4.2 10.1v35.3c0 4-1.4 7.3-4.2 10.1-2.8 2.8-6.2 4.2-10.1 4.2h-36.4c-4 0-7.3-1.4-10.1-4.2-2.8-2.8-4.2-6.2-4.2-10.1v-35.3c0-4 1.4-7.3 4.2-10.1 2.8-2.8 6.2-4.2 10.1-4.2zM416 335h-36.4c-.7 0-1.2.2-1.7.7-.5.5-.7 1-.7 1.7v35.3c0 .7.2 1.2.7 1.7.5.5 1 .7 1.7.7H416c.7 0 1.2-.2 1.7-.7.5-.5.7-1 .7-1.7v-35.3c0-.7-.2-1.2-.7-1.7-.5-.4-1-.7-1.7-.7zm107.5-11.9c4 0 7.3 1.4 10.1 4.2 2.8 2.8 4.2 6.2 4.2 10.1V387H526v-49.6c0-.7-.2-1.2-.7-1.7-.5-.5-1.1-.7-1.8-.7h-25.2c-.7 0-1.2.2-1.7.7-.5.5-.7 1-.7 1.7V387H484v-49.6c0-.7-.2-1.2-.7-1.7-.5-.5-1-.7-1.7-.7h-25.3c-.7 0-1.2.2-1.7.7-.5.5-.7 1-.7 1.7V387H442v-63.9h81.5zm76.5 0c4 0 7.3 1.4 10.1 4.2 2.8 2.8 4.2 6.2 4.2 10.1V361h-53.1v11.7c0 .7.2 1.2.7 1.7.5.5 1 .7 1.7.7h50.7V387h-50.7c-4 0-7.3-1.4-10.1-4.2-2.8-2.8-4.2-6.2-4.2-10.1v-35.3c0-4 1.4-7.3 4.2-10.1 2.8-2.8 6.2-4.2 10.1-4.2H600zm-38.8 26h41.2v-11.7c0-.7-.2-1.2-.7-1.7-.5-.5-1-.7-1.7-.7h-36.4c-.7 0-1.2.2-1.7.7-.5.5-.7 1-.7 1.7v11.7z" />
  <path
     transform="translate(-178.3,-167.1)"
     d="M 357.59961 120.40039 L 207.59961 258.09961 L 207.5 258.09961 L 207.5 348.80078 C 207.5 389.80078 247 423.19922 295.5 423.19922 L 388 423.19922 C 436.5 423.19922 476 389.80078 476 348.80078 L 476 289.19922 L 524 289.19922 L 524 348.80078 C 524 389.80078 563.5 423.19922 612 423.19922 L 704.5 423.19922 C 753 423.19922 792.5 389.80078 792.5 348.80078 L 792.5 258.09961 L 642.5 120.5 L 621.40039 143.5 L 746.40039 258.09961 L 253.69922 258.09961 L 378.69922 143.40039 L 357.59961 120.40039 z M 333.26758 302.875 C 336.88672 302.85818 340.66012 303.13483 344.29688 303.74023 C 350.04202 304.69776 354.88086 309.00682 354.88086 314.74414 L 354.88086 334.90234 C 354.88087 340.81374 350.18312 345.66016 344.29688 345.66016 L 323.15039 345.66016 C 315.9709 345.66016 309.92578 351.82485 309.92578 358.8125 L 309.92578 368.48438 L 302.64648 368.48438 C 296.49376 368.48438 292.89941 364.01947 291.39453 357.75195 C 289.36454 349.33195 289.45074 344.30021 291.39453 336.23633 C 293.07969 329.20118 298.46837 325.50195 304.62109 325.50195 L 312.56445 325.50195 L 333.73633 325.50195 L 333.73633 322.8125 L 312.56445 322.8125 L 312.56445 314.74414 C 312.56446 308.63489 314.19171 305.32293 323.15039 303.74023 C 326.19148 303.2021 329.64845 302.8918 333.26758 302.875 z M 668.16797 302.875 C 693.57474 302.875 712.54297 320.67336 712.54297 344.44141 C 712.54297 352.0577 710.6117 359.08914 707.16016 365.13672 L 693.77344 351.75 C 694.3513 349.46401 694.66406 347.05108 694.66406 344.54297 C 694.66406 329.12122 683.03866 317.49023 668.43945 317.49023 C 653.84024 317.49023 641.67383 329.12179 641.67383 344.54297 C 641.67383 359.96414 653.97559 371.85938 668.43945 371.85938 C 670.46167 371.85937 672.4215 371.62328 674.30664 371.18945 L 686.26367 383.08594 C 680.798 385.27128 674.69681 386.47461 668.16797 386.47461 C 642.87806 386.47461 623.91016 368.44314 623.91016 344.44141 C 623.91016 320.55651 642.87748 302.875 668.16797 302.875 z M 321.81836 309.36523 C 319.62377 309.36523 317.8457 311.18048 317.8457 313.41211 C 317.8457 315.63581 319.62377 317.43358 321.81836 317.43359 C 324.00513 317.43359 325.79102 315.63581 325.79102 313.41211 C 325.79102 311.18048 324.00513 309.36523 321.81836 309.36523 z M 357.52148 325.50195 L 365.4668 325.50195 C 371.62735 325.50195 374.53218 330.11125 376.05273 336.23633 C 378.16896 344.74337 378.26301 351.12041 376.05273 357.75195 C 373.913 364.19357 371.61953 368.48438 365.4668 368.48438 L 354.88086 368.48438 L 333.73633 368.48438 L 333.73633 371.17383 L 354.88086 371.17383 L 354.88086 379.24219 C 354.88087 385.35143 349.62662 388.45686 344.29688 390 C 336.27875 392.32658 329.85176 391.97047 323.15039 390 C 317.55415 388.35399 312.56445 384.9795 312.56445 379.24219 L 312.56445 359.08398 C 312.56446 353.28336 317.35821 348.32617 323.15039 348.32617 L 344.29688 348.32617 C 351.34312 348.32616 357.52148 342.1907 357.52148 334.90234 L 357.52148 325.50195 z M 661.55078 339.45508 L 674.45312 339.45508 L 684.98633 349.86523 L 672.54102 349.86523 L 672.54102 362.80469 L 661.55078 351.85156 L 661.55078 339.45508 z M 677.74805 355.07227 L 690.25195 355.07227 L 712.45312 377.02148 L 712.45312 389.19922 L 699.02344 389.19922 L 677.74805 367.99414 L 677.74805 355.07227 z M 345.62891 376.55273 C 343.44215 376.55273 341.65626 378.35051 341.65625 380.57422 C 341.65625 382.80584 343.44215 384.62109 345.62891 384.62109 C 347.82351 384.62109 349.60156 382.80584 349.60156 380.57422 C 349.60156 378.35051 347.82351 376.55274 345.62891 376.55273 z "
     style="fill:#589632;fill-opacity:1"
     id="path4" />
</svg>
