<?xml version="1.0" encoding="UTF-8" standalone="no"?>
<svg
   xmlns:dc="http://purl.org/dc/elements/1.1/"
   xmlns:cc="http://creativecommons.org/ns#"
   xmlns:rdf="http://www.w3.org/1999/02/22-rdf-syntax-ns#"
   xmlns:svg="http://www.w3.org/2000/svg"
   xmlns="http://www.w3.org/2000/svg"
   xmlns:sodipodi="http://sodipodi.sourceforge.net/DTD/sodipodi-0.dtd"
   xmlns:inkscape="http://www.inkscape.org/namespaces/inkscape"
   inkscape:version="1.0 (4035a4fb49, 2020-05-01)"
   sodipodi:docname="logo.svg"
   viewBox="-178.3 -167.1 1000 700"
   version="1.1"
   id="svg6">
  <sodipodi:namedview
     inkscape:current-layer="svg6"
     inkscape:window-maximized="1"
     inkscape:window-y="-8"
     inkscape:window-x="1672"
     inkscape:cy="313.69135"
     inkscape:cx="327.18774"
     inkscape:zoom="0.80398041"
     showgrid="false"
     id="namedview7"
     inkscape:window-height="976"
     inkscape:window-width="1920"
     inkscape:pageshadow="2"
     inkscape:pageopacity="0"
     guidetolerance="10"
     gridtolerance="10"
     objecttolerance="10"
     borderopacity="1"
     bordercolor="#666666"
     pagecolor="#ffffff" />
  <metadata
     id="metadata12">
    <rdf:RDF>
      <cc:Work
         rdf:about="">
        <dc:format>image/svg+xml</dc:format>
        <dc:type
           rdf:resource="http://purl.org/dc/dcmitype/StillImage" />
        <dc:title />
      </cc:Work>
    </rdf:RDF>
  </metadata>
  <defs
     id="defs10" />
  <path
     d="M79.9 323.1c4 0 7.3 1.4 10.1 4.2 2.8 2.8 4.2 6.2 4.2 10.1V387H43.5c-4 0-7.3-1.4-10.1-4.2-2.8-2.8-4.2-6.2-4.2-10.1v-23.6h53.1v-11.7c0-.7-.2-1.2-.7-1.7-.5-.5-1-.7-1.7-.7H29.2v-11.9h50.7zm2.4 52V361H41.1v11.7c0 .7.2 1.2.7 1.7.5.5 1 .7 1.7.7h38.8zm114.7-52h12.7l-24 63.9H176l-21.5-47.5-20.3 47.5-.2-.1.1.1h-9.6l-25.1-63.9H112l17.3 42.4 18.4-42.4h13.6l19.5 42.4 16.2-42.4zm67.2 0c4 0 7.3 1.4 10.1 4.2 2.8 2.8 4.2 6.2 4.2 10.1V361h-53.1v11.7c0 .7.2 1.2.7 1.7.5.5 1 .7 1.7.7h50.7V387h-50.7c-4 0-7.3-1.4-10.1-4.2-2.8-2.8-4.2-6.2-4.2-10.1v-35.3c0-4 1.4-7.3 4.2-10.1 2.8-2.8 6.2-4.2 10.1-4.2h36.4zm-38.8 26h41.2v-11.7c0-.7-.2-1.2-.7-1.7-.5-.5-1-.7-1.7-.7h-36.4c-.7 0-1.2.2-1.7.7-.5.5-.7 1-.7 1.7v11.7zm129-11.6v2.4h-11.9v-2.4c0-.7-.2-1.2-.7-1.7-.5-.5-1-.7-1.7-.7h-36.4c-.7 0-1.2.2-1.7.7-.5.5-.7 1-.7 1.7v9.3c0 .7.2 1.2.7 1.7.5.5 1 .7 1.7.7h36.4c4 0 7.3 1.4 10.1 4.2 2.8 2.8 4.2 6.2 4.2 10.1v9.3c0 4-1.4 7.3-4.2 10.1-2.8 2.8-6.2 4.2-10.1 4.2h-36.4c-4 0-7.3-1.4-10.1-4.2-2.8-2.8-4.2-6.2-4.2-10.1v-2.4h11.9v2.4c0 .7.2 1.2.7 1.7.5.5 1 .7 1.7.7h36.4c.7 0 1.2-.2 1.7-.7.5-.5.7-1 .7-1.7v-9.3c0-.7-.2-1.2-.7-1.7-.5-.5-1-.7-1.7-.7h-36.4c-4 0-7.3-1.4-10.1-4.2-2.8-2.8-4.2-6.2-4.2-10.1v-9.3c0-4 1.4-7.3 4.2-10.1 2.8-2.8 6.2-4.2 10.1-4.2h36.4c4 0 7.3 1.4 10.1 4.2 2.8 2.7 4.2 6.1 4.2 10.1zm25.2-14.4H416c4 0 7.3 1.4 10.1 4.2 2.8 2.8 4.2 6.2 4.2 10.1v35.3c0 4-1.4 7.3-4.2 10.1-2.8 2.8-6.2 4.2-10.1 4.2h-36.4c-4 0-7.3-1.4-10.1-4.2-2.8-2.8-4.2-6.2-4.2-10.1v-35.3c0-4 1.4-7.3 4.2-10.1 2.8-2.8 6.2-4.2 10.1-4.2zM416 335h-36.4c-.7 0-1.2.2-1.7.7-.5.5-.7 1-.7 1.7v35.3c0 .7.2 1.2.7 1.7.5.5 1 .7 1.7.7H416c.7 0 1.2-.2 1.7-.7.5-.5.7-1 .7-1.7v-35.3c0-.7-.2-1.2-.7-1.7-.5-.4-1-.7-1.7-.7zm107.5-11.9c4 0 7.3 1.4 10.1 4.2 2.8 2.8 4.2 6.2 4.2 10.1V387H526v-49.6c0-.7-.2-1.2-.7-1.7-.5-.5-1.1-.7-1.8-.7h-25.2c-.7 0-1.2.2-1.7.7-.5.5-.7 1-.7 1.7V387H484v-49.6c0-.7-.2-1.2-.7-1.7-.5-.5-1-.7-1.7-.7h-25.3c-.7 0-1.2.2-1.7.7-.5.5-.7 1-.7 1.7V387H442v-63.9h81.5zm76.5 0c4 0 7.3 1.4 10.1 4.2 2.8 2.8 4.2 6.2 4.2 10.1V361h-53.1v11.7c0 .7.2 1.2.7 1.7.5.5 1 .7 1.7.7h50.7V387h-50.7c-4 0-7.3-1.4-10.1-4.2-2.8-2.8-4.2-6.2-4.2-10.1v-35.3c0-4 1.4-7.3 4.2-10.1 2.8-2.8 6.2-4.2 10.1-4.2H600zm-38.8 26h41.2v-11.7c0-.7-.2-1.2-.7-1.7-.5-.5-1-.7-1.7-.7h-36.4c-.7 0-1.2.2-1.7.7-.5.5-.7 1-.7 1.7v11.7z"
     fill="#494368"
     id="path2" />
  <path
     transform="translate(-178.3,-167.1)"
     d="M 357.59961 120.40039 L 207.59961 258.09961 L 207.5 258.09961 L 207.5 348.80078 C 207.5 389.80078 247 423.19922 295.5 423.19922 L 388 423.19922 C 436.5 423.19922 476 389.80078 476 348.80078 L 476 289.19922 L 524 289.19922 L 524 348.80078 C 524 389.80078 563.5 423.19922 612 423.19922 L 704.5 423.19922 C 753 423.19922 792.5 389.80078 792.5 348.80078 L 792.5 258.09961 L 642.5 120.5 L 621.40039 143.5 L 746.40039 258.09961 L 253.69922 258.09961 L 378.69922 143.40039 L 357.59961 120.40039 z M 668.07227 301.19531 C 671.69141 301.17852 675.46481 301.45515 679.10156 302.06055 C 684.8467 303.01808 689.68555 307.32713 689.68555 313.06445 L 689.68555 333.22266 C 689.68556 339.13406 684.9878 343.98047 679.10156 343.98047 L 657.95508 343.98047 C 650.77559 343.98047 644.73047 350.14517 644.73047 357.13281 L 644.73047 366.80469 L 637.45117 366.80469 C 631.29845 366.80469 627.7041 362.33979 626.19922 356.07227 C 624.16923 347.65227 624.25543 342.62052 626.19922 334.55664 C 627.88438 327.52149 633.27306 323.82227 639.42578 323.82227 L 647.36914 323.82227 L 668.54102 323.82227 L 668.54102 321.13281 L 647.36914 321.13281 L 647.36914 313.06445 C 647.36915 306.9552 648.9964 303.64325 657.95508 302.06055 C 660.99617 301.52242 664.45314 301.21211 668.07227 301.19531 z M 334.73438 306.3125 C 360.14114 306.3125 379.10938 324.11086 379.10938 347.87891 C 379.10938 355.4952 377.1781 362.52664 373.72656 368.57422 L 360.33984 355.1875 C 360.9177 352.90152 361.23047 350.48858 361.23047 347.98047 C 361.23047 332.55872 349.60507 320.92773 335.00586 320.92773 C 320.40665 320.92773 308.24023 332.55929 308.24023 347.98047 C 308.24023 363.40164 320.542 375.29688 335.00586 375.29688 C 337.02808 375.29687 338.98791 375.06078 340.87305 374.62695 L 352.83008 386.52344 C 347.36441 388.70878 341.26321 389.91211 334.73438 389.91211 C 309.44446 389.91211 290.47656 371.88064 290.47656 347.87891 C 290.47656 323.99401 309.44388 306.31251 334.73438 306.3125 z M 656.62305 307.68555 C 654.42846 307.68555 652.65039 309.50079 652.65039 311.73242 C 652.65039 313.95612 654.42846 315.7539 656.62305 315.75391 C 658.80982 315.75391 660.5957 313.95612 660.5957 311.73242 C 660.5957 309.50079 658.80982 307.68555 656.62305 307.68555 z M 692.32617 323.82227 L 700.27148 323.82227 C 706.43202 323.82227 709.33687 328.43156 710.85742 334.55664 C 712.97365 343.06368 713.0677 349.44073 710.85742 356.07227 C 708.71769 362.51389 706.4242 366.80469 700.27148 366.80469 L 689.68555 366.80469 L 668.54102 366.80469 L 668.54102 369.49414 L 689.68555 369.49414 L 689.68555 377.5625 C 689.68556 383.67174 684.43131 386.77718 679.10156 388.32031 C 671.08344 390.6469 664.65645 390.29079 657.95508 388.32031 C 652.35884 386.6743 647.36914 383.29981 647.36914 377.5625 L 647.36914 357.4043 C 647.36915 351.60368 652.1629 346.64648 657.95508 346.64648 L 679.10156 346.64648 C 686.14781 346.64647 692.32617 340.51102 692.32617 333.22266 L 692.32617 323.82227 z M 328.11719 342.89258 L 341.01953 342.89258 L 351.55273 353.30273 L 339.10742 353.30273 L 339.10742 366.24219 L 328.11719 355.28906 L 328.11719 342.89258 z M 344.31445 358.50977 L 356.81836 358.50977 L 379.01953 380.45898 L 379.01953 392.63672 L 365.58984 392.63672 L 344.31445 371.43164 L 344.31445 358.50977 z M 680.43359 374.87305 C 678.24683 374.87305 676.46095 376.67082 676.46094 378.89453 C 676.46094 381.12615 678.24683 382.94141 680.43359 382.94141 C 682.62819 382.94141 684.40625 381.12615 684.40625 378.89453 C 684.40625 376.67082 682.62819 374.87306 680.43359 374.87305 z "
     style="fill:#589632;fill-opacity:1"
     id="path4" />
</svg>
